<svg width="97" height="46" viewBox="0 0 97 46" fill="none" xmlns="http://www.w3.org/2000/svg">
<path d="M78.4829 15.3288L63.4622 0.308C63.4562 0.302 63.4497 0.296999 63.4436 0.291299C63.4246 0.273233 63.4057 0.255333 63.3854 0.2386C63.3722 0.2279 63.3584 0.218499 63.3449 0.208399C63.3309 0.197966 63.3172 0.1871 63.3025 0.177266C63.2876 0.1673 63.272 0.1585 63.2566 0.1494C63.2425 0.1409 63.2286 0.132066 63.2141 0.124166C63.199 0.116266 63.1835 0.109367 63.1681 0.102167C63.1523 0.0945334 63.1367 0.0867331 63.1205 0.0799998C63.106 0.0739665 63.0914 0.0692994 63.0767 0.0639994C63.059 0.0575328 63.0413 0.0507998 63.023 0.0452332C63.0091 0.0409665 62.9948 0.0378992 62.9807 0.0343658C62.9617 0.0293992 62.9427 0.0241001 62.9232 0.0202667C62.9078 0.0172001 62.8921 0.0155668 62.8767 0.0132334C62.8582 0.0104334 62.84 0.00706655 62.8213 0.00529989C62.7959 0.00263322 62.7706 0.00206593 62.7454 0.0013326C62.7363 0.00116593 62.7275 0 62.7183 0H35.0728C35.0608 0 35.049 0.00146595 35.0371 0.00176595C35.0148 0.00249928 34.9924 0.00293329 34.9702 0.00516663C34.95 0.00723329 34.9303 0.0107326 34.9105 0.0138326C34.8964 0.0160326 34.8824 0.0175001 34.8685 0.0202667C34.8477 0.0244001 34.8274 0.0299659 34.807 0.0352325C34.7942 0.0384659 34.7813 0.0412328 34.7687 0.0450328C34.749 0.0510661 34.73 0.0582328 34.7109 0.0652995C34.6977 0.0701661 34.6845 0.0742664 34.6714 0.0796997C34.6535 0.0871664 34.6362 0.0956659 34.6188 0.104199C34.6051 0.110666 34.5915 0.116667 34.578 0.1237C34.5611 0.1328 34.5449 0.142934 34.5287 0.1529C34.5156 0.1608 34.5023 0.168166 34.4897 0.176666C34.4716 0.1887 34.4546 0.2019 34.4374 0.214967C34.4271 0.222734 34.4166 0.229766 34.4066 0.237999C34.3795 0.260299 34.3535 0.283633 34.3287 0.308433L19.308 15.3288C19.3017 15.3351 19.2962 15.3421 19.2901 15.3486C19.2725 15.3671 19.255 15.3856 19.2387 15.4054C19.2271 15.4195 19.217 15.4343 19.2063 15.4487C19.1966 15.4619 19.1864 15.4745 19.1774 15.488C19.1665 15.5043 19.157 15.5212 19.1471 15.5379C19.1396 15.5507 19.1314 15.5631 19.1244 15.5763C19.1156 15.5931 19.1079 15.6102 19.0999 15.6272C19.0933 15.6413 19.0862 15.6553 19.0802 15.6696C19.0792 15.672 19.0779 15.6743 19.0768 15.6767C19.0713 15.6909 19.067 15.7054 19.0619 15.7198C19.0563 15.7354 19.0503 15.7508 19.0454 15.7668C19.0403 15.7838 19.0365 15.801 19.0322 15.8181C19.0283 15.8343 19.0237 15.8501 19.0204 15.8666C19.0164 15.8867 19.0141 15.9069 19.0111 15.927C19.0094 15.9408 19.0066 15.9544 19.0053 15.9684C19.0017 16.003 19 16.0378 19 16.0726C19 16.1073 19.0017 16.1421 19.0053 16.1767C19.0066 16.1908 19.0094 16.2043 19.0113 16.2183C19.0141 16.2384 19.0164 16.2586 19.0204 16.2786C19.0237 16.295 19.0283 16.3109 19.0322 16.3272C19.0365 16.3444 19.0403 16.3614 19.0454 16.3784C19.0503 16.3944 19.0563 16.4098 19.0619 16.4255C19.0679 16.4422 19.0733 16.4591 19.0802 16.4755C19.0862 16.4899 19.0933 16.5039 19.0999 16.5179C19.1079 16.5351 19.1156 16.5521 19.1244 16.5688C19.1314 16.582 19.1396 16.5945 19.1471 16.6073C19.157 16.624 19.1665 16.6409 19.1774 16.6572C19.1864 16.6707 19.1966 16.6833 19.2063 16.6965C19.217 16.7109 19.2271 16.7257 19.2387 16.7398C19.255 16.7596 19.2725 16.7781 19.2901 16.7965C19.2962 16.803 19.3017 16.81 19.308 16.8164L48.1518 45.6602C48.3572 45.8655 48.6265 45.9682 48.8956 45.9682C49.1647 45.9682 49.434 45.8655 49.6394 45.6602L78.4829 16.8164C78.8936 16.4055 78.8936 15.7396 78.4829 15.3288ZM35.5086 2.10363H43.3245L34.517 15.0208H22.591L35.5086 2.10363ZM51.9204 2.10363L60.7282 15.0208H37.063L45.8705 2.10363H51.9204ZM62.2826 2.10363L75.1997 15.0208H63.2742L54.4664 2.10363H62.2826ZM61.0208 17.1244L48.8956 41.5136L36.7704 17.1244H61.0208ZM34.421 17.1244L46.117 40.6502L22.5911 17.1244H34.421ZM63.3702 17.1244H75.1997L51.6742 40.6502L63.3702 17.1244Z" fill="#BEB698"/>
<path d="M6.88379 23.4922H9.27734V32.9272C9.27734 33.8241 9.08561 34.591 8.70215 35.228C8.31868 35.8589 7.79297 36.3444 7.125 36.6846C6.45703 37.0186 5.69938 37.1855 4.85205 37.1855C3.99235 37.1855 3.22852 37.0402 2.56055 36.7495C1.89876 36.4526 1.37614 36.0042 0.992676 35.4043C0.615397 34.7982 0.426758 34.0343 0.426758 33.1128H2.82031C2.82031 33.8859 3.00586 34.4395 3.37695 34.7734C3.75423 35.1012 4.24593 35.2651 4.85205 35.2651C5.25407 35.2651 5.60661 35.1755 5.90967 34.9961C6.21273 34.8105 6.45085 34.5446 6.62402 34.1982C6.7972 33.8519 6.88379 33.4282 6.88379 32.9272V23.4922ZM23.242 37H16.1077V35.0796H23.242V37ZM16.7757 37H14.3821V23.4922H16.7757V37ZM22.305 30.9883H16.1077V29.0957H22.305V30.9883ZM23.1956 25.4219H16.1077V23.4922H23.1956V25.4219ZM33.6534 23.4922H35.1006L34.9708 26.0435L32.1041 37H30.6011L30.9908 34.1333L33.6534 23.4922ZM31.2134 34.0684L31.3712 37H29.7754L26.6675 23.4922H29.0518L31.2134 34.0684ZM40.231 23.4922H42.6153L39.5167 37H37.9117L38.1065 34.0405L40.231 23.4922ZM38.3106 34.1704L38.6817 37H37.1788L34.3585 26.0435L34.2471 23.4922H35.6666L38.3106 34.1704ZM55.6429 37H48.5086V35.0796H55.6429V37ZM49.1766 37H46.783V23.4922H49.1766V37ZM54.7059 30.9883H48.5086V29.0957H54.7059V30.9883ZM55.5965 25.4219H48.5086V23.4922H55.5965V25.4219ZM68.4943 37H61.7218V35.0796H68.4943V37ZM62.3898 37H59.9962V23.4922H62.3898V37ZM81.6054 37H74.4711V35.0796H81.6054V37ZM75.1391 37H72.7455V23.4922H75.1391V37ZM80.6684 30.9883H74.4711V29.0957H80.6684V30.9883ZM81.559 25.4219H74.4711V23.4922H81.559V25.4219ZM90.7551 23.4922C91.7879 23.4922 92.6693 23.6468 93.3991 23.9561C94.1289 24.2653 94.6856 24.723 95.069 25.3291C95.4587 25.9352 95.6535 26.6805 95.6535 27.5649C95.6535 28.2453 95.5298 28.8421 95.2824 29.3555C95.035 29.8688 94.6825 30.3018 94.2248 30.6543C93.7733 31.0007 93.2383 31.2697 92.6198 31.4614L91.8962 31.8325H87.6193L87.6008 29.9121H90.7736C91.3241 29.9121 91.7818 29.8162 92.1467 29.6245C92.5178 29.4328 92.793 29.1699 92.9723 28.8359C93.1579 28.502 93.2507 28.1216 93.2507 27.6948C93.2507 27.0021 93.0497 26.4517 92.6476 26.0435C92.2518 25.6291 91.6209 25.4219 90.7551 25.4219H88.3522V37H85.9587V23.4922H90.7551ZM90.4767 30.9419L92.9909 30.9326L96.1916 36.8794V37H93.631L90.4767 30.9419Z" fill="#535353"/>
</svg>
