<svg width="115" height="51" viewBox="0 0 115 51" fill="none" xmlns="http://www.w3.org/2000/svg">
<path d="M83.4829 15.3288L68.4622 0.308C68.4562 0.302 68.4497 0.296999 68.4436 0.291299C68.4246 0.273233 68.4057 0.255333 68.3854 0.2386C68.3722 0.2279 68.3584 0.218499 68.3449 0.208399C68.3309 0.197966 68.3172 0.1871 68.3025 0.177266C68.2876 0.1673 68.272 0.1585 68.2566 0.1494C68.2425 0.1409 68.2286 0.132066 68.2141 0.124166C68.199 0.116266 68.1835 0.109367 68.1681 0.102167C68.1523 0.0945334 68.1367 0.0867331 68.1205 0.0799998C68.106 0.0739665 68.0914 0.0692994 68.0767 0.0639994C68.059 0.0575328 68.0413 0.0507998 68.023 0.0452332C68.0091 0.0409665 67.9948 0.0378992 67.9807 0.0343658C67.9617 0.0293992 67.9427 0.0241001 67.9232 0.0202667C67.9078 0.0172001 67.8921 0.0155668 67.8767 0.0132334C67.8582 0.0104334 67.84 0.00706655 67.8213 0.00529989C67.7959 0.00263322 67.7706 0.00206593 67.7454 0.0013326C67.7363 0.00116593 67.7275 0 67.7183 0H40.0728C40.0608 0 40.049 0.00146595 40.0371 0.00176595C40.0148 0.00249928 39.9924 0.00293329 39.9702 0.00516663C39.95 0.00723329 39.9303 0.0107326 39.9105 0.0138326C39.8964 0.0160326 39.8824 0.0175001 39.8685 0.0202667C39.8477 0.0244001 39.8274 0.0299659 39.807 0.0352325C39.7942 0.0384659 39.7813 0.0412328 39.7687 0.0450328C39.749 0.0510661 39.73 0.0582328 39.7109 0.0652995C39.6977 0.0701661 39.6845 0.0742664 39.6714 0.0796997C39.6535 0.0871664 39.6362 0.0956659 39.6188 0.104199C39.6051 0.110666 39.5915 0.116667 39.578 0.1237C39.5611 0.1328 39.5449 0.142934 39.5287 0.1529C39.5156 0.1608 39.5023 0.168166 39.4897 0.176666C39.4716 0.1887 39.4546 0.2019 39.4374 0.214967C39.4271 0.222734 39.4166 0.229766 39.4066 0.237999C39.3795 0.260299 39.3535 0.283633 39.3287 0.308433L24.308 15.3288C24.3017 15.3351 24.2962 15.3421 24.2901 15.3486C24.2725 15.3671 24.255 15.3856 24.2387 15.4054C24.2271 15.4195 24.217 15.4343 24.2063 15.4487C24.1966 15.4619 24.1864 15.4745 24.1774 15.488C24.1665 15.5043 24.157 15.5212 24.1471 15.5379C24.1396 15.5507 24.1314 15.5631 24.1244 15.5763C24.1156 15.5931 24.1079 15.6102 24.0999 15.6272C24.0933 15.6413 24.0862 15.6553 24.0802 15.6696C24.0792 15.672 24.0779 15.6743 24.0768 15.6767C24.0713 15.6909 24.067 15.7054 24.0619 15.7198C24.0563 15.7354 24.0503 15.7508 24.0454 15.7668C24.0403 15.7838 24.0365 15.801 24.0322 15.8181C24.0283 15.8343 24.0237 15.8501 24.0204 15.8666C24.0164 15.8867 24.0141 15.9069 24.0111 15.927C24.0094 15.9408 24.0066 15.9544 24.0053 15.9684C24.0017 16.003 24 16.0378 24 16.0726C24 16.1073 24.0017 16.1421 24.0053 16.1767C24.0066 16.1908 24.0094 16.2043 24.0113 16.2183C24.0141 16.2384 24.0164 16.2586 24.0204 16.2786C24.0237 16.295 24.0283 16.3109 24.0322 16.3272C24.0365 16.3444 24.0403 16.3614 24.0454 16.3784C24.0503 16.3944 24.0563 16.4098 24.0619 16.4255C24.0679 16.4422 24.0733 16.4591 24.0802 16.4755C24.0862 16.4899 24.0933 16.5039 24.0999 16.5179C24.1079 16.5351 24.1156 16.5521 24.1244 16.5688C24.1314 16.582 24.1396 16.5945 24.1471 16.6073C24.157 16.624 24.1665 16.6409 24.1774 16.6572C24.1864 16.6707 24.1966 16.6833 24.2063 16.6965C24.217 16.7109 24.2271 16.7257 24.2387 16.7398C24.255 16.7596 24.2725 16.7781 24.2901 16.7965C24.2962 16.803 24.3017 16.81 24.308 16.8164L53.1518 45.6602C53.3572 45.8655 53.6265 45.9682 53.8956 45.9682C54.1647 45.9682 54.434 45.8655 54.6394 45.6602L83.4829 16.8164C83.8936 16.4055 83.8936 15.7396 83.4829 15.3288ZM40.5086 2.10363H48.3245L39.517 15.0208H27.591L40.5086 2.10363ZM56.9204 2.10363L65.7282 15.0208H42.063L50.8705 2.10363H56.9204ZM67.2826 2.10363L80.1997 15.0208H68.2742L59.4664 2.10363H67.2826ZM66.0208 17.1244L53.8956 41.5136L41.7704 17.1244H66.0208ZM39.421 17.1244L51.117 40.6502L27.5911 17.1244H39.421ZM68.3702 17.1244H80.1997L56.6742 40.6502L68.3702 17.1244Z" fill="#BEB698"/>
<g filter="url(#filter0_d_3_466)">
<path d="M11.8838 23.4922H14.2773V32.9272C14.2773 33.8241 14.0856 34.591 13.7021 35.228C13.3187 35.8589 12.793 36.3444 12.125 36.6846C11.457 37.0186 10.6994 37.1855 9.85205 37.1855C8.99235 37.1855 8.22852 37.0402 7.56055 36.7495C6.89876 36.4526 6.37614 36.0042 5.99268 35.4043C5.6154 34.7982 5.42676 34.0343 5.42676 33.1128H7.82031C7.82031 33.8859 8.00586 34.4395 8.37695 34.7734C8.75423 35.1012 9.24593 35.2651 9.85205 35.2651C10.2541 35.2651 10.6066 35.1755 10.9097 34.9961C11.2127 34.8105 11.4508 34.5446 11.624 34.1982C11.7972 33.8519 11.8838 33.4282 11.8838 32.9272V23.4922ZM28.242 37H21.1077V35.0796H28.242V37ZM21.7757 37H19.3821V23.4922H21.7757V37ZM27.305 30.9883H21.1077V29.0957H27.305V30.9883ZM28.1956 25.4219H21.1077V23.4922H28.1956V25.4219ZM38.6534 23.4922H40.1006L39.9708 26.0435L37.1041 37H35.6011L35.9908 34.1333L38.6534 23.4922ZM36.2134 34.0684L36.3712 37H34.7754L31.6675 23.4922H34.0518L36.2134 34.0684ZM45.231 23.4922H47.6153L44.5167 37H42.9117L43.1065 34.0405L45.231 23.4922ZM43.3106 34.1704L43.6817 37H42.1788L39.3585 26.0435L39.2471 23.4922H40.6666L43.3106 34.1704ZM60.6429 37H53.5086V35.0796H60.6429V37ZM54.1766 37H51.783V23.4922H54.1766V37ZM59.7059 30.9883H53.5086V29.0957H59.7059V30.9883ZM60.5965 25.4219H53.5086V23.4922H60.5965V25.4219ZM73.4943 37H66.7218V35.0796H73.4943V37ZM67.3898 37H64.9962V23.4922H67.3898V37ZM86.6054 37H79.4711V35.0796H86.6054V37ZM80.1391 37H77.7455V23.4922H80.1391V37ZM85.6684 30.9883H79.4711V29.0957H85.6684V30.9883ZM86.559 25.4219H79.4711V23.4922H86.559V25.4219ZM95.7551 23.4922C96.7879 23.4922 97.6693 23.6468 98.3991 23.9561C99.1289 24.2653 99.6856 24.723 100.069 25.3291C100.459 25.9352 100.653 26.6805 100.653 27.5649C100.653 28.2453 100.53 28.8421 100.282 29.3555C100.035 29.8688 99.6825 30.3018 99.2248 30.6543C98.7733 31.0007 98.2383 31.2697 97.6198 31.4614L96.8962 31.8325H92.6193L92.6008 29.9121H95.7736C96.3241 29.9121 96.7818 29.8162 97.1467 29.6245C97.5178 29.4328 97.793 29.1699 97.9723 28.8359C98.1579 28.502 98.2507 28.1216 98.2507 27.6948C98.2507 27.0021 98.0497 26.4517 97.6476 26.0435C97.2518 25.6291 96.6209 25.4219 95.7551 25.4219H93.3522V37H90.9587V23.4922H95.7551ZM95.4767 30.9419L97.9909 30.9326L101.192 36.8794V37H98.631L95.4767 30.9419Z" fill="white"/>
</g>
<defs>
<filter id="filter0_d_3_466" x="0.426758" y="18.4922" width="113.765" height="31.6934" filterUnits="userSpaceOnUse" color-interpolation-filters="sRGB">
<feFlood flood-opacity="0" result="BackgroundImageFix"/>
<feColorMatrix in="SourceAlpha" type="matrix" values="0 0 0 0 0 0 0 0 0 0 0 0 0 0 0 0 0 0 127 0" result="hardAlpha"/>
<feOffset dx="4" dy="4"/>
<feGaussianBlur stdDeviation="4.5"/>
<feComposite in2="hardAlpha" operator="out"/>
<feColorMatrix type="matrix" values="0 0 0 0 0 0 0 0 0 0 0 0 0 0 0 0 0 0 1 0"/>
<feBlend mode="normal" in2="BackgroundImageFix" result="effect1_dropShadow_3_466"/>
<feBlend mode="normal" in="SourceGraphic" in2="effect1_dropShadow_3_466" result="shape"/>
</filter>
</defs>
</svg>
