<svg width="28" height="24" viewBox="0 0 28 24" fill="none" xmlns="http://www.w3.org/2000/svg">
<path d="M22.75 0.719238H5.25L0 6.91155L14 23.7192L28 6.91155L22.75 0.719238ZM8.12 6.02693H3.0625L5.7225 2.8777L8.12 6.02693ZM11.235 6.02693L14 2.77155L16.765 6.02693H11.235ZM17.5 7.79616L14 19.6146L10.5 7.79616H17.5ZM9.205 7.79616L12.5125 19.19L3.0275 7.79616H9.205ZM18.8125 7.79616H24.99L15.4875 19.19L18.8125 7.79616ZM19.8975 6.02693L22.295 2.8777L24.9375 6.02693H19.8625H19.8975ZM21 2.48847L18.48 5.69078L15.925 2.48847H21ZM9.5025 5.72616L7 2.48847H12.075L9.5025 5.72616Z" fill="#978A7F"/>
</svg>
